<mxfile host="app.diagrams.net" modified="2020-08-28T05:55:20.846Z" agent="5.0 (Macintosh; Intel Mac OS X 10_15_3) AppleWebKit/537.36 (KHTML, like Gecko) Chrome/84.0.4147.125 Safari/537.36" etag="muOXnZjN7U14XgNfJHyL" version="13.6.5" type="github">
  <diagram id="hsEDlJzrJ3RACm7ouZ3l" name="Page-1">
    <mxGraphModel dx="1188" dy="588" grid="1" gridSize="10" guides="1" tooltips="1" connect="1" arrows="1" fold="1" page="1" pageScale="1" pageWidth="1920" pageHeight="1200" math="0" shadow="0">
      <root>
        <mxCell id="0" />
        <mxCell id="1" parent="0" />
        <mxCell id="ew_BGw2SkTwSmYwkqbNW-1" value="&lt;font style=&quot;font-size: 16px&quot;&gt;Global extends GlobalSettings&lt;/font&gt;" style="shape=process;whiteSpace=wrap;html=1;backgroundOutline=1;" vertex="1" parent="1">
          <mxGeometry x="130" y="170" width="330" height="60" as="geometry" />
        </mxCell>
        <mxCell id="ew_BGw2SkTwSmYwkqbNW-2" value="DrElephant（&lt;span style=&quot;font-family: &amp;#34;microsoft yahei&amp;#34; , &amp;#34;arial&amp;#34; , &amp;#34;helvetica&amp;#34; , sans-serif ; font-size: 14px ; text-align: left ; background-color: rgb(255 , 255 , 255)&quot;&gt;Singleton&lt;/span&gt;）" style="rounded=1;whiteSpace=wrap;html=1;" vertex="1" parent="1">
          <mxGeometry x="195" y="330" width="200" height="60" as="geometry" />
        </mxCell>
        <mxCell id="ew_BGw2SkTwSmYwkqbNW-3" value="" style="endArrow=classic;html=1;exitX=0.5;exitY=1;exitDx=0;exitDy=0;entryX=0.5;entryY=0;entryDx=0;entryDy=0;" edge="1" parent="1" source="ew_BGw2SkTwSmYwkqbNW-1" target="ew_BGw2SkTwSmYwkqbNW-2">
          <mxGeometry width="50" height="50" relative="1" as="geometry">
            <mxPoint x="450" y="490" as="sourcePoint" />
            <mxPoint x="500" y="440" as="targetPoint" />
          </mxGeometry>
        </mxCell>
        <mxCell id="ew_BGw2SkTwSmYwkqbNW-4" value="new Thread" style="text;html=1;strokeColor=#666666;fillColor=#f5f5f5;align=center;verticalAlign=middle;whiteSpace=wrap;rounded=0;fontColor=#333333;" vertex="1" parent="1">
          <mxGeometry x="310" y="270" width="85" height="20" as="geometry" />
        </mxCell>
        <mxCell id="ew_BGw2SkTwSmYwkqbNW-6" value="" style="shape=umlActor;verticalLabelPosition=bottom;verticalAlign=top;html=1;outlineConnect=0;" vertex="1" parent="1">
          <mxGeometry x="280" y="60" width="30" height="60" as="geometry" />
        </mxCell>
        <mxCell id="ew_BGw2SkTwSmYwkqbNW-10" value="" style="endArrow=classic;html=1;exitX=0.5;exitY=0.5;exitDx=0;exitDy=0;exitPerimeter=0;entryX=0.5;entryY=0;entryDx=0;entryDy=0;" edge="1" parent="1" source="ew_BGw2SkTwSmYwkqbNW-6" target="ew_BGw2SkTwSmYwkqbNW-1">
          <mxGeometry width="50" height="50" relative="1" as="geometry">
            <mxPoint x="340" y="170" as="sourcePoint" />
            <mxPoint x="390" y="120" as="targetPoint" />
          </mxGeometry>
        </mxCell>
        <mxCell id="ew_BGw2SkTwSmYwkqbNW-11" value="ElephantRunner（Runnable）" style="rounded=1;whiteSpace=wrap;html=1;" vertex="1" parent="1">
          <mxGeometry x="195" y="470" width="200" height="60" as="geometry" />
        </mxCell>
        <mxCell id="ew_BGw2SkTwSmYwkqbNW-12" value="" style="endArrow=classic;html=1;exitX=0.5;exitY=1;exitDx=0;exitDy=0;" edge="1" parent="1" source="ew_BGw2SkTwSmYwkqbNW-2" target="ew_BGw2SkTwSmYwkqbNW-11">
          <mxGeometry width="50" height="50" relative="1" as="geometry">
            <mxPoint x="530" y="470" as="sourcePoint" />
            <mxPoint x="580" y="420" as="targetPoint" />
          </mxGeometry>
        </mxCell>
        <mxCell id="ew_BGw2SkTwSmYwkqbNW-13" value="new Thread" style="text;html=1;strokeColor=#666666;fillColor=#f5f5f5;align=center;verticalAlign=middle;whiteSpace=wrap;rounded=0;fontColor=#333333;" vertex="1" parent="1">
          <mxGeometry x="310" y="420" width="85" height="20" as="geometry" />
        </mxCell>
        <mxCell id="ew_BGw2SkTwSmYwkqbNW-14" value="1.&amp;nbsp;&lt;span style=&quot;font-family: &amp;#34;microsoft yahei&amp;#34; , &amp;#34;arial&amp;#34; , &amp;#34;helvetica&amp;#34; , sans-serif ; font-size: 14px ; text-align: left ; background-color: rgb(255 , 255 , 255)&quot;&gt;Prepare the environment, configure, and initialize&lt;/span&gt;" style="rounded=1;whiteSpace=wrap;html=1;" vertex="1" parent="1">
          <mxGeometry x="540" y="330" width="200" height="60" as="geometry" />
        </mxCell>
        <mxCell id="ew_BGw2SkTwSmYwkqbNW-15" value="2. ThreadPoolExecutor and while true" style="rounded=1;whiteSpace=wrap;html=1;align=center;" vertex="1" parent="1">
          <mxGeometry x="540" y="420" width="200" height="50" as="geometry" />
        </mxCell>
        <mxCell id="ew_BGw2SkTwSmYwkqbNW-16" value="3. Fetch job information to be analyzed from Resource Manager" style="rounded=1;whiteSpace=wrap;html=1;align=center;" vertex="1" parent="1">
          <mxGeometry x="540" y="500" width="200" height="50" as="geometry" />
        </mxCell>
        <mxCell id="ew_BGw2SkTwSmYwkqbNW-18" value="&lt;font style=&quot;font-size: 16px&quot;&gt;Yarn&lt;/font&gt;" style="shape=cube;whiteSpace=wrap;html=1;boundedLbl=1;backgroundOutline=1;darkOpacity=0.05;darkOpacity2=0.1;align=center;" vertex="1" parent="1">
          <mxGeometry x="840" y="505" width="80" height="60" as="geometry" />
        </mxCell>
        <mxCell id="ew_BGw2SkTwSmYwkqbNW-19" value="" style="endArrow=classic;html=1;exitX=1;exitY=0.5;exitDx=0;exitDy=0;entryX=0;entryY=0;entryDx=0;entryDy=20;entryPerimeter=0;" edge="1" parent="1" source="ew_BGw2SkTwSmYwkqbNW-16" target="ew_BGw2SkTwSmYwkqbNW-18">
          <mxGeometry width="50" height="50" relative="1" as="geometry">
            <mxPoint x="810" y="660" as="sourcePoint" />
            <mxPoint x="860" y="610" as="targetPoint" />
          </mxGeometry>
        </mxCell>
        <mxCell id="ew_BGw2SkTwSmYwkqbNW-20" value="HTTP" style="text;html=1;strokeColor=none;fillColor=none;align=center;verticalAlign=middle;whiteSpace=wrap;rounded=0;" vertex="1" parent="1">
          <mxGeometry x="771" y="502" width="40" height="20" as="geometry" />
        </mxCell>
        <mxCell id="ew_BGw2SkTwSmYwkqbNW-21" value="4.&lt;span&gt;Send thread to analyze ExecutorJob&lt;br&gt;&lt;/span&gt;" style="rounded=1;whiteSpace=wrap;html=1;align=center;" vertex="1" parent="1">
          <mxGeometry x="540" y="710" width="200" height="50" as="geometry" />
        </mxCell>
        <mxCell id="ew_BGw2SkTwSmYwkqbNW-22" value="1. Get&amp;nbsp;ElephantFetcher by app type" style="rounded=1;whiteSpace=wrap;html=1;align=center;" vertex="1" parent="1">
          <mxGeometry x="800" y="610" width="200" height="30" as="geometry" />
        </mxCell>
        <mxCell id="ew_BGw2SkTwSmYwkqbNW-24" value="2. Fetch data" style="rounded=1;whiteSpace=wrap;html=1;align=center;" vertex="1" parent="1">
          <mxGeometry x="800" y="650" width="200" height="30" as="geometry" />
        </mxCell>
        <mxCell id="ew_BGw2SkTwSmYwkqbNW-25" value="3. Get&amp;nbsp;Heuristic by app type" style="rounded=1;whiteSpace=wrap;html=1;" vertex="1" parent="1">
          <mxGeometry x="800" y="703" width="200" height="30" as="geometry" />
        </mxCell>
        <mxCell id="ew_BGw2SkTwSmYwkqbNW-26" value="4. For each&amp;nbsp;apply Heuristic" style="rounded=1;whiteSpace=wrap;html=1;" vertex="1" parent="1">
          <mxGeometry x="800" y="743" width="200" height="30" as="geometry" />
        </mxCell>
        <mxCell id="ew_BGw2SkTwSmYwkqbNW-27" value="5. Aggregate metrics" style="rounded=1;whiteSpace=wrap;html=1;" vertex="1" parent="1">
          <mxGeometry x="800" y="783" width="200" height="30" as="geometry" />
        </mxCell>
        <mxCell id="ew_BGw2SkTwSmYwkqbNW-28" value="6. Build result" style="rounded=1;whiteSpace=wrap;html=1;" vertex="1" parent="1">
          <mxGeometry x="800" y="823" width="200" height="30" as="geometry" />
        </mxCell>
        <mxCell id="ew_BGw2SkTwSmYwkqbNW-29" value="7. Save result" style="rounded=1;whiteSpace=wrap;html=1;" vertex="1" parent="1">
          <mxGeometry x="800" y="863" width="200" height="30" as="geometry" />
        </mxCell>
      </root>
    </mxGraphModel>
  </diagram>
</mxfile>
